<svg xmlns="http://www.w3.org/2000/svg" xml:space="preserve" width="20" height="20" viewBox="0 0 512 512"><linearGradient id="a" x1="57.947" x2="407.951" y1="351.453" y2="149.378" gradientUnits="userSpaceOnUse"><stop offset="0" stop-color="#F14D5C"/><stop offset=".131" stop-color="#F05454"/><stop offset=".335" stop-color="#3bf488"/><stop offset=".349" stop-color="#ED683C"/><stop offset=".714" stop-color="#1e15a3"/><stop offset="1" stop-color="#FDC70C"/></linearGradient><path fill="url(#a)" d="M300.766 87.509c-33.056 0-64.133 12.873-87.507 36.246s-36.247 54.451-36.247 87.507c0 24.234 6.927 47.4 19.83 67.252l-12.669 12.669-.001.001-90.664 90.665c-8.353 8.354-7.88 22.418 1.055 31.353l4.261 4.262c4.669 4.668 10.736 7.028 16.658 7.028 5.417 0 10.713-1.976 14.703-5.966l15.405-15.405 75.259-75.259 12.671-12.672c19.85 12.9 43.014 19.826 67.246 19.826 33.056 0 64.133-12.873 87.506-36.247 48.252-48.251 48.252-126.762 0-175.014-23.374-23.373-54.451-36.246-87.506-36.246m-162.248 308.54c-4.454 4.453-12.178 3.979-17.219-1.063l-4.261-4.262c-5.036-5.035-5.509-12.756-1.055-17.21l71.38-71.38a135.8 135.8 0 0 0 22.536 22.533zm-32.624 14.342-4.261-4.26c-5.036-5.036-5.509-12.757-1.055-17.211l2.902-2.902c.936 4.27 3.101 8.393 6.486 11.779l4.261 4.26c3.392 3.393 7.523 5.549 11.799 6.483l-2.914 2.914c-4.454 4.454-12.178 3.978-17.218-1.063m107.894-89.612.007-.008zm3.245-3.245a126 126 0 0 1-11.998-10.544A126 126 0 0 1 194.498 295l8.214-8.214a125.4 125.4 0 0 0 22.536 22.534zm164.168-25.837c-21.485 21.485-50.052 33.318-80.436 33.318s-58.951-11.833-80.436-33.318-33.318-50.051-33.318-80.436 11.833-58.95 33.318-80.436c21.485-21.485 50.051-33.317 80.436-33.317 30.384 0 58.95 11.832 80.436 33.317 44.352 44.354 44.352 116.521 0 160.872"/><path fill="#3bf488ff" d="m258.117 115.27 3.604 9.328a86 86 0 0 1 7.949-2.632l-2.676-9.636a96 96 0 0 0-8.877 2.94"/><path fill="#1e15a3ff" d="m206.264 162.886 8.985 4.389c8.299-16.992 22.191-30.997 39.118-39.433l-4.46-8.95c-18.885 9.412-34.384 25.036-43.643 43.994"/></svg>